#Comment line ignore any data following # character 
#Hierarchical Translation and Rotation (.htr) file 
[Header]	
#Header keywords are followed by a single value 
FileType HTR		#Single word string
DataType HTRS		#Translation followed by rotation and scale data
FileVersion 1		#integer
NumSegments 84		#integer
NumFrames 2		#integer
DataFrameRate 30		#integer, data frame rate in this file
EulerRotationOrder ZYX
CalibrationUnits mm
RotationUnits Degrees
GlobalAxisofGravity Y
BoneLengthAxis Y
ScaleFactor 1.00
[SegmentNames&Hierarchy]
#CHILD	PARENT
MASTER GLOBAL
root MASTER
chest root
L_mid_tent01 root
R_mid_tent01 root
spine01 root
Bip01_Neck chest
L_humerus chest
R_humerus chest
weapon_bone chest
Bip01_Head Bip01_Neck
eye_left_bone Bip01_Head
eye_right_bone Bip01_Head
L_forearm L_humerus
L_front_hand L_forearm
L_weapon_bone L_forearm
L_front_hand01_01 L_front_hand
L_front_hand02_01 L_front_hand
L_front_hand03_01 L_front_hand
L_front_hand01_02 L_front_hand01_01
L_front_hand02_02 L_front_hand02_01
L_front_hand03_02 L_front_hand03_01
R_forearm R_humerus
R_front_hand R_forearm
R_weapon_bone R_forearm
R_front_hand01_01 R_front_hand
R_front_hand02_01 R_front_hand
R_front_hand03_01 R_front_hand
R_front_hand01_02 R_front_hand01_01
R_front_hand02_02 R_front_hand02_01
R_front_hand03_02 R_front_hand03_01
null_rope01_connect L_mid_tent01
Rope1_Seg01 null_rope01_connect
Rope1_Seg02 Rope1_Seg01
Rope1_Seg03 Rope1_Seg02
Rope1_Seg04 Rope1_Seg03
Rope1_Seg05 Rope1_Seg04
Rope1_Seg06 Rope1_Seg05
Rope1_Seg07 Rope1_Seg06
Rope1_Seg09 Rope1_Seg07
L_mid_hand01 Rope1_Seg09
L_mid_hand02 Rope1_Seg09
L_mid_hand03 Rope1_Seg09
null_rope02_connect R_mid_tent01
Rope2_Seg01 null_rope02_connect
Rope2_Seg02 Rope2_Seg01
Rope2_Seg03 Rope2_Seg02
Rope2_Seg04 Rope2_Seg03
Rope2_Seg05 Rope2_Seg04
Rope2_Seg06 Rope2_Seg05
Rope2_Seg07 Rope2_Seg06
Rope2_Seg09 Rope2_Seg07
R_mid_hand01 Rope2_Seg09
R_mid_hand02 Rope2_Seg09
R_mid_hand03 Rope2_Seg09
spine02 spine01
spine03 spine02
pelvis spine03
null_rope03_connect pelvis
null_rope04_connect pelvis
Rope3_Seg01 null_rope03_connect
Rope3_Seg02 Rope3_Seg01
Rope3_Seg03 Rope3_Seg02
Rope3_Seg04 Rope3_Seg03
Rope3_Seg05 Rope3_Seg04
Rope3_Seg06 Rope3_Seg05
Rope3_Seg07 Rope3_Seg06
Rope3_Seg08 Rope3_Seg07
Rope3_Seg09 Rope3_Seg08
R_rear_hand01 Rope3_Seg09
R_rear_hand02 Rope3_Seg09
R_rear_hand03 Rope3_Seg09
Rope4_Seg01 null_rope04_connect
Rope4_Seg02 Rope4_Seg01
Rope4_Seg03 Rope4_Seg02
Rope4_Seg04 Rope4_Seg03
Rope4_Seg05 Rope4_Seg04
Rope4_Seg06 Rope4_Seg05
Rope4_Seg07 Rope4_Seg06
Rope4_Seg08 Rope4_Seg07
Rope4_Seg09 Rope4_Seg08
L_rear_hand01 Rope4_Seg09
L_rear_hand02 Rope4_Seg09
L_rear_hand03 Rope4_Seg09
[BasePosition]
#SegmentName Tx, Ty, Tz, Rx, Ry, Rz, BoneLength
MASTER 0.000000 0.000000 0.000000 -90.000000 0.000000 0.000000 10.000000 
root 0.000000 0.000000 0.000000 0.000000 0.000000 0.000000 10.000000 
chest 0.000000 0.000000 0.000000 0.000000 0.000000 0.000000 10.000000 
L_mid_tent01 0.000000 0.000000 0.000000 0.000000 0.000000 0.000000 10.000000 
R_mid_tent01 0.000000 0.000000 0.000000 0.000000 0.000000 0.000000 10.000000 
spine01 0.000000 0.000000 0.000000 0.000000 0.000000 0.000000 10.000000 
Bip01_Neck 0.000000 0.000000 0.000000 0.000000 0.000000 0.000000 10.000000 
L_humerus 0.000000 0.000000 0.000000 0.000000 0.000000 0.000000 10.000000 
R_humerus 0.000000 0.000000 0.000000 0.000000 0.000000 0.000000 10.000000 
weapon_bone 0.000000 0.000000 0.000000 0.000000 0.000000 0.000000 10.000000 
Bip01_Head 0.000000 0.000000 0.000000 0.000000 0.000000 0.000000 10.000000 
eye_left_bone 0.000000 0.000000 0.000000 0.000000 0.000000 0.000000 10.000000 
eye_right_bone 0.000000 0.000000 0.000000 0.000000 0.000000 0.000000 10.000000 
L_forearm 0.000000 0.000000 0.000000 0.000000 0.000000 0.000000 10.000000 
L_front_hand 0.000000 0.000000 0.000000 0.000000 0.000000 0.000000 10.000000 
L_weapon_bone 0.000000 0.000000 0.000000 0.000000 0.000000 0.000000 10.000000 
L_front_hand01_01 0.000000 0.000000 0.000000 0.000000 0.000000 0.000000 10.000000 
L_front_hand02_01 0.000000 0.000000 0.000000 0.000000 0.000000 0.000000 10.000000 
L_front_hand03_01 0.000000 0.000000 0.000000 0.000000 0.000000 0.000000 10.000000 
L_front_hand01_02 0.000000 0.000000 0.000000 0.000000 0.000000 0.000000 10.000000 
L_front_hand02_02 0.000000 0.000000 0.000000 0.000000 0.000000 0.000000 10.000000 
L_front_hand03_02 0.000000 0.000000 0.000000 0.000000 0.000000 0.000000 10.000000 
R_forearm 0.000000 0.000000 0.000000 0.000000 0.000000 0.000000 10.000000 
R_front_hand 0.000000 0.000000 0.000000 0.000000 0.000000 0.000000 10.000000 
R_weapon_bone 0.000000 0.000000 0.000000 0.000000 0.000000 0.000000 10.000000 
R_front_hand01_01 0.000000 0.000000 0.000000 0.000000 0.000000 0.000000 10.000000 
R_front_hand02_01 0.000000 0.000000 0.000000 0.000000 0.000000 0.000000 10.000000 
R_front_hand03_01 0.000000 0.000000 0.000000 0.000000 0.000000 0.000000 10.000000 
R_front_hand01_02 0.000000 0.000000 0.000000 0.000000 0.000000 0.000000 10.000000 
R_front_hand02_02 0.000000 0.000000 0.000000 0.000000 0.000000 0.000000 10.000000 
R_front_hand03_02 0.000000 0.000000 0.000000 0.000000 0.000000 0.000000 10.000000 
null_rope01_connect 0.000000 0.000000 0.000000 0.000000 0.000000 0.000000 10.000000 
Rope1_Seg01 0.000000 0.000000 0.000000 0.000000 0.000000 0.000000 10.000000 
Rope1_Seg02 0.000000 0.000000 0.000000 0.000000 0.000000 0.000000 10.000000 
Rope1_Seg03 0.000000 0.000000 0.000000 0.000000 0.000000 0.000000 10.000000 
Rope1_Seg04 0.000000 0.000000 0.000000 0.000000 0.000000 0.000000 10.000000 
Rope1_Seg05 0.000000 0.000000 0.000000 0.000000 0.000000 0.000000 10.000000 
Rope1_Seg06 0.000000 0.000000 0.000000 0.000000 0.000000 0.000000 10.000000 
Rope1_Seg07 0.000000 0.000000 0.000000 0.000000 0.000000 0.000000 10.000000 
Rope1_Seg09 0.000000 0.000000 0.000000 0.000000 0.000000 0.000000 10.000000 
L_mid_hand01 0.000000 0.000000 0.000000 0.000000 0.000000 0.000000 10.000000 
L_mid_hand02 0.000000 0.000000 0.000000 0.000000 0.000000 0.000000 10.000000 
L_mid_hand03 0.000000 0.000000 0.000000 0.000000 0.000000 0.000000 10.000000 
null_rope02_connect 0.000000 0.000000 0.000000 0.000000 0.000000 0.000000 10.000000 
Rope2_Seg01 0.000000 0.000000 0.000000 0.000000 0.000000 0.000000 10.000000 
Rope2_Seg02 0.000000 0.000000 0.000000 0.000000 0.000000 0.000000 10.000000 
Rope2_Seg03 0.000000 0.000000 0.000000 0.000000 0.000000 0.000000 10.000000 
Rope2_Seg04 0.000000 0.000000 0.000000 0.000000 0.000000 0.000000 10.000000 
Rope2_Seg05 0.000000 0.000000 0.000000 0.000000 0.000000 0.000000 10.000000 
Rope2_Seg06 0.000000 0.000000 0.000000 0.000000 0.000000 0.000000 10.000000 
Rope2_Seg07 0.000000 0.000000 0.000000 0.000000 0.000000 0.000000 10.000000 
Rope2_Seg09 0.000000 0.000000 0.000000 0.000000 0.000000 0.000000 10.000000 
R_mid_hand01 0.000000 0.000000 0.000000 0.000000 0.000000 0.000000 10.000000 
R_mid_hand02 0.000000 0.000000 0.000000 0.000000 0.000000 0.000000 10.000000 
R_mid_hand03 0.000000 0.000000 0.000000 0.000000 0.000000 0.000000 10.000000 
spine02 0.000000 0.000000 0.000000 0.000000 0.000000 0.000000 10.000000 
spine03 0.000000 0.000000 0.000000 0.000000 0.000000 0.000000 10.000000 
pelvis 0.000000 0.000000 0.000000 0.000000 0.000000 0.000000 10.000000 
null_rope03_connect 0.000000 0.000000 0.000000 0.000000 0.000000 0.000000 10.000000 
null_rope04_connect 0.000000 0.000000 0.000000 0.000000 0.000000 0.000000 10.000000 
Rope3_Seg01 0.000000 0.000000 0.000000 0.000000 0.000000 0.000000 10.000000 
Rope3_Seg02 0.000000 0.000000 0.000000 0.000000 0.000000 0.000000 10.000000 
Rope3_Seg03 0.000000 0.000000 0.000000 0.000000 0.000000 0.000000 10.000000 
Rope3_Seg04 0.000000 0.000000 0.000000 0.000000 0.000000 0.000000 10.000000 
Rope3_Seg05 0.000000 0.000000 0.000000 0.000000 0.000000 0.000000 10.000000 
Rope3_Seg06 0.000000 0.000000 0.000000 0.000000 0.000000 0.000000 10.000000 
Rope3_Seg07 0.000000 0.000000 0.000000 0.000000 0.000000 0.000000 10.000000 
Rope3_Seg08 0.000000 0.000000 0.000000 0.000000 0.000000 0.000000 10.000000 
Rope3_Seg09 0.000000 0.000000 0.000000 0.000000 0.000000 0.000000 10.000000 
R_rear_hand01 0.000000 0.000000 0.000000 0.000000 0.000000 0.000000 10.000000 
R_rear_hand02 0.000000 0.000000 0.000000 0.000000 0.000000 0.000000 10.000000 
R_rear_hand03 0.000000 0.000000 0.000000 0.000000 0.000000 0.000000 10.000000 
Rope4_Seg01 0.000000 0.000000 0.000000 0.000000 0.000000 0.000000 10.000000 
Rope4_Seg02 0.000000 0.000000 0.000000 0.000000 0.000000 0.000000 10.000000 
Rope4_Seg03 0.000000 0.000000 0.000000 0.000000 0.000000 0.000000 10.000000 
Rope4_Seg04 0.000000 0.000000 0.000000 0.000000 0.000000 0.000000 10.000000 
Rope4_Seg05 0.000000 0.000000 0.000000 0.000000 0.000000 0.000000 10.000000 
Rope4_Seg06 0.000000 0.000000 0.000000 0.000000 0.000000 0.000000 10.000000 
Rope4_Seg07 0.000000 0.000000 0.000000 0.000000 0.000000 0.000000 10.000000 
Rope4_Seg08 0.000000 0.000000 0.000000 0.000000 0.000000 0.000000 10.000000 
Rope4_Seg09 0.000000 0.000000 0.000000 0.000000 0.000000 0.000000 10.000000 
L_rear_hand01 0.000000 0.000000 0.000000 0.000000 0.000000 0.000000 10.000000 
L_rear_hand02 0.000000 0.000000 0.000000 0.000000 0.000000 0.000000 10.000000 
L_rear_hand03 0.000000 0.000000 0.000000 0.000000 0.000000 0.000000 10.000000 
#Beginning of Data. Separated by tabs
#Fr	Tx	Ty	Tz	Rx	Ry	Rz	SF
[MASTER]
9 0.000000 0.000000 0.000000 0.001660 0.001660 0.001660 0.000000
10 0.000000 0.000000 0.000000 0.001660 0.001660 0.001660 0.000000
[root]
9 19.120443 -157.946411 1990.878662 -109.418427 -27.627188 -56.833771 1997.225708
10 46.623177 -169.707779 2058.876953 -111.292366 -28.613516 -56.909218 2066.385498
[chest]
9 -84.512650 -34.090519 0.000000 -2.738495 3.657663 174.558395 91.129311
10 -84.512650 -34.090519 0.000000 -2.772952 3.058951 175.310669 91.129311
[L_mid_tent01]
9 27.299089 22.179373 -249.918655 -71.311234 34.995117 -19.082870 252.381653
10 27.299088 22.179369 -249.918655 -79.272369 39.811111 -24.451332 252.381653
[R_mid_tent01]
9 23.228794 24.509907 226.238495 102.845413 -39.838108 162.274658 228.744751
10 23.228794 24.509907 226.238495 95.788696 -36.483082 174.758926 228.744751
[spine01]
9 -0.361383 -0.195265 0.000000 0.001940 0.001322 21.442495 0.410763
10 -0.361383 -0.195265 0.000000 0.001939 0.001323 21.379576 0.410763
[Bip01_Neck]
9 165.484543 71.581718 0.000119 175.896118 1.177290 24.871183 180.302734
10 165.484543 71.581718 0.000119 175.896118 1.177290 24.871183 180.302734
[L_humerus]
9 -13.983130 -135.272980 -120.471481 142.517548 78.621391 -122.615570 181.680161
10 -13.983130 -135.272980 -120.471481 166.239777 77.677048 -98.316940 181.680161
[R_humerus]
9 -13.983309 -135.273102 125.287651 129.253433 -44.118065 -2.846938 184.909012
10 -13.983309 -135.273102 125.287651 132.926285 -41.367271 -4.807041 184.909012
[weapon_bone]
9 235.964890 -300.705902 0.000000 0.000000 -89.951546 -128.212341 382.234833
10 235.964890 -300.705902 0.000000 0.000000 -89.951546 -128.212341 382.234833
[Bip01_Head]
9 230.574982 115.512299 4.919070 -33.955887 0.552361 -54.722141 257.938202
10 234.970871 109.741974 4.247704 -35.254974 0.523295 -54.426823 259.369720
[eye_left_bone]
9 31.329346 158.513336 -75.557976 -104.218590 -85.597984 4.718000 178.373245
10 31.566467 158.653488 -75.603676 -104.218590 -85.597984 4.718000 178.558929
[eye_right_bone]
9 42.124737 159.366470 53.136242 75.788536 -85.594551 4.713911 173.192459
10 42.568817 159.592117 53.061810 75.788536 -85.594551 4.713911 173.485748
[L_forearm]
9 322.776093 0.000000 -0.000119 0.000212 -0.002338 -100.359276 322.776093
10 322.776093 0.000000 -0.000119 0.000090 -0.002346 -94.386459 322.776093
[L_front_hand]
9 241.149185 -0.042021 -3.300071 -178.837830 -1.951295 -22.183525 241.171753
10 241.149185 -0.042021 -3.300071 -178.863098 -1.965784 -21.503145 241.171753
[L_weapon_bone]
9 156.183838 0.000000 0.000000 0.000866 0.002182 -46.707054 156.183838
10 156.183838 0.000000 0.000000 0.000714 0.002236 -54.565235 156.183838
[L_front_hand01_01]
9 86.095154 20.947098 -0.655860 -0.343536 -0.494286 72.740097 88.609184
10 86.095154 20.947098 -0.655860 -0.339043 -0.497476 72.161797 88.609184
[L_front_hand02_01]
9 86.935165 -11.437475 24.513514 150.451904 -58.658855 -56.776970 91.046425
10 86.935165 -11.437475 24.513514 149.636078 -58.371841 -55.819244 91.046425
[L_front_hand03_01]
9 86.637497 -14.123976 -20.424902 -150.254028 56.881126 -58.362083 90.126129
10 86.637497 -14.123976 -20.424902 -149.488617 56.590305 -57.446053 90.126129
[L_front_hand01_02]
9 71.020905 -0.000179 0.000030 0.001534 0.001777 -8.378850 71.020905
10 71.020905 -0.000179 0.000030 0.001534 0.001777 -8.378850 71.020905
[L_front_hand02_02]
9 71.020927 -0.000119 0.000060 0.001534 0.001777 -8.378850 71.020927
10 71.020927 -0.000119 0.000060 0.001534 0.001777 -8.378850 71.020927
[L_front_hand03_02]
9 71.020905 -0.000060 0.000060 0.001534 0.001777 -8.378850 71.020905
10 71.020905 -0.000060 0.000060 0.001534 0.001777 -8.378850 71.020905
[R_forearm]
9 322.776428 -0.000060 0.000030 0.172547 -0.126251 -54.476501 322.776428
10 322.776428 -0.000060 0.000030 0.159333 -0.136129 -50.681156 322.776428
[R_front_hand]
9 238.847015 -0.006795 2.210259 -2.635298 -10.645461 -26.312506 238.857239
10 238.847015 -0.006795 2.210259 -2.635298 -10.645461 -26.312506 238.857239
[R_weapon_bone]
9 155.664093 0.002503 -0.000030 0.003487 0.001180 -90.988930 155.664078
10 155.664093 0.002503 -0.000030 0.003487 0.001180 -90.988930 155.664078
[R_front_hand01_01]
9 87.624611 14.231146 22.918642 -154.633499 -59.950619 61.746044 91.683487
10 87.624611 14.231146 22.918642 -154.633499 -59.950619 61.746044 91.683487
[R_front_hand02_01]
9 89.356956 14.367283 -19.491137 154.602661 58.302849 63.744389 92.579636
10 89.356956 14.367283 -19.491137 154.602661 58.302849 63.744389 92.579636
[R_front_hand03_01]
9 87.286232 -22.307278 -0.143439 0.162155 -0.423168 -75.767921 90.091743
10 87.286232 -22.307278 -0.143439 0.162155 -0.423168 -75.767921 90.091743
[R_front_hand01_02]
9 71.020905 0.000060 0.000119 0.001777 0.001534 8.377223 71.020905
10 71.020905 0.000060 0.000119 0.001796 0.001512 9.806078 71.020905
[R_front_hand02_02]
9 71.020844 -0.000030 -0.000119 0.001777 0.001534 8.377223 71.020836
10 71.020844 -0.000030 -0.000119 0.001796 0.001512 9.806078 71.020836
[R_front_hand03_02]
9 71.020905 0.000000 0.000030 0.001777 0.001534 8.377223 71.020905
10 71.020905 0.000000 0.000030 0.001796 0.001512 9.806078 71.020905
[null_rope01_connect]
9 328.732483 0.000000 -0.000238 -127.639679 -25.535805 -97.346382 328.732483
10 328.732483 0.000000 -0.000238 -121.159622 -18.714470 -102.570229 328.732483
[Rope1_Seg01]
9 -0.000033 0.000029 0.000114 64.820961 -35.966282 -136.180298 0.000123
10 -0.000033 0.000027 0.000110 66.402519 -37.867054 -138.070206 0.000118
[Rope1_Seg02]
9 139.999863 -0.000179 0.000000 0.605451 -2.113064 0.519782 139.999863
10 139.999863 -0.000179 0.000000 1.038016 -2.990132 -0.089749 139.999863
[Rope1_Seg03]
9 139.999924 0.000060 -0.000060 0.966840 -3.919936 1.007822 139.999924
10 139.999924 0.000060 -0.000060 1.704032 -5.786788 -0.074566 139.999924
[Rope1_Seg04]
9 139.999924 -0.000060 -0.000119 0.544914 -17.193672 8.234816 139.999924
10 139.999924 -0.000060 -0.000119 1.514171 -26.251966 4.693473 139.999924
[Rope1_Seg05]
9 139.999832 0.000119 -0.000060 63.499012 -66.343147 -102.835114 139.999832
10 139.999832 0.000119 -0.000060 -15.071939 -71.616730 -14.940598 139.999832
[Rope1_Seg06]
9 139.999954 0.000119 -0.000060 2.257390 -8.912021 -50.592781 139.999954
10 139.999954 0.000119 -0.000060 -9.075511 -5.894808 -43.021103 139.999954
[Rope1_Seg07]
9 139.999985 0.000060 0.000000 0.759512 -1.241229 -2.821187 139.999985
10 139.999985 0.000060 0.000000 0.271672 -2.794700 -12.043771 139.999985
[Rope1_Seg09]
9 121.602913 0.000119 -0.000089 -80.921791 -1.359678 0.849854 121.602913
10 121.602913 0.000119 -0.000089 -75.035263 -1.361174 0.847706 121.602913
[L_mid_hand01]
9 103.859421 1.038730 8.195221 104.352036 0.341478 -0.444584 104.187431
10 103.859421 1.038730 8.195221 104.354431 -0.290364 -0.605212 104.187431
[L_mid_hand02]
9 105.572853 -4.139662 -10.864139 -135.608444 3.905688 -3.381057 106.211075
10 105.572853 -4.139662 -10.864139 -135.643021 4.357895 -3.850538 106.211075
[L_mid_hand03]
9 104.641464 17.579376 -3.913581 -18.761518 -0.324361 2.942913 106.179977
10 104.641464 17.579376 -3.913581 -18.764666 -0.116946 3.560568 106.179977
[null_rope02_connect]
9 328.732849 0.000179 -0.000119 -133.731766 6.258955 78.625130 328.732849
10 328.732849 0.000179 -0.000119 -141.205002 6.687978 82.338638 328.732849
[Rope2_Seg01]
9 0.000095 0.000153 0.000019 -33.116409 -1.567123 -8.012910 0.000181
10 0.000095 0.000153 0.000021 -43.288090 8.066813 -10.689792 0.000181
[Rope2_Seg02]
9 139.999741 -0.000060 -0.000119 -8.496055 1.198271 7.799653 139.999756
10 139.999741 -0.000060 -0.000119 -7.650293 -2.312421 7.280189 139.999756
[Rope2_Seg03]
9 140.000107 0.000030 0.000000 -12.683149 0.282608 15.041657 140.000107
10 140.000107 0.000030 0.000000 -9.897799 -6.354918 13.716885 140.000107
[Rope2_Seg04]
9 139.999802 0.000000 -0.000060 -15.654679 -0.737088 28.911594 139.999802
10 139.999802 0.000000 -0.000060 -12.751718 -13.753633 29.178856 139.999802
[Rope2_Seg05]
9 139.999985 -0.000060 0.000119 -7.606491 -28.050770 25.956411 139.999985
10 139.999985 -0.000060 0.000119 -4.886793 -26.171993 23.176973 139.999985
[Rope2_Seg06]
9 139.999893 -0.000030 -0.000119 -3.161862 -27.878269 14.901818 139.999893
10 139.999893 -0.000030 -0.000119 -4.422720 -24.838287 8.136470 139.999893
[Rope2_Seg07]
9 139.999893 0.000060 -0.000060 1.883335 -9.807867 6.516156 139.999893
10 139.999893 0.000060 -0.000060 -0.996771 -10.572142 4.396324 139.999893
[Rope2_Seg09]
9 121.338966 0.000089 -0.000060 33.793236 -1.359788 -0.847141 121.338966
10 121.338966 0.000089 -0.000060 33.793236 -1.359788 -0.847141 121.338966
[R_mid_hand01]
9 104.680779 11.144459 -10.335981 -46.888985 8.340994 10.460958 105.778534
10 104.680779 11.144459 -10.335981 -43.666332 20.819098 23.152678 105.778534
[R_mid_hand02]
9 104.070427 2.443552 8.231699 75.441551 -9.350805 2.950356 104.424065
10 104.070427 2.443552 8.231699 73.950394 -26.224144 7.780693 104.424065
[R_mid_hand03]
9 106.028137 -11.221827 -5.996406 -164.808060 4.446084 -13.219695 106.788818
10 106.028137 -11.221827 -5.996406 -166.788940 8.765354 -30.281555 106.788818
[spine02]
9 129.756927 0.001550 0.000119 0.459061 -4.033887 -14.328957 129.756927
10 129.756927 0.001550 0.000119 0.452914 -4.034643 -14.293827 129.756927
[spine03]
9 78.614044 0.081596 -4.899016 2.139188 3.701151 20.208374 78.766579
10 78.614044 0.081592 -4.899016 2.155360 3.690298 20.434914 78.766579
[pelvis]
9 169.435242 0.051022 0.000000 -0.062016 -0.179698 15.075165 169.435257
10 169.435242 0.051022 0.000000 -0.062078 -0.179676 15.115074 169.435257
[null_rope03_connect]
9 -1.257226 -2.466202 137.391083 124.764664 -61.126152 -44.789364 137.418976
10 -1.257226 -2.466202 137.391083 128.778915 -61.386463 -47.630508 137.418976
[null_rope04_connect]
9 -1.259640 -2.480268 -137.844437 124.764664 -61.126152 -44.789364 137.872513
10 -1.259640 -2.480268 -137.844437 128.778915 -61.386463 -47.630508 137.872513
[Rope3_Seg01]
9 0.000000 0.000000 0.000000 -124.458916 40.379196 -62.053505 0.000000
10 0.000000 0.000000 0.000000 -124.427002 40.010624 -61.998947 0.000000
[Rope3_Seg02]
9 139.999924 -0.000119 0.000060 0.406651 -7.814286 0.167225 139.999924
10 139.999924 -0.000119 0.000060 0.436040 -8.082605 0.308003 139.999924
[Rope3_Seg03]
9 139.999924 -0.000119 0.000119 1.453409 -11.641051 0.340732 139.999924
10 139.999924 -0.000119 0.000119 1.477015 -11.688634 0.546552 139.999924
[Rope3_Seg04]
9 139.999924 0.000119 0.000000 4.208558 -17.569630 0.212349 139.999924
10 139.999924 0.000119 0.000000 3.664274 -15.683022 -0.018636 139.999924
[Rope3_Seg05]
9 139.999924 -0.000238 0.000060 6.726589 -16.927141 1.479070 139.999924
10 139.999924 -0.000238 0.000060 5.450679 -14.413741 0.290092 139.999924
[Rope3_Seg06]
9 139.999893 -0.000119 -0.000060 10.247265 -19.211113 9.009483 139.999893
10 139.999893 -0.000119 -0.000060 9.646799 -18.646189 8.753338 139.999893
[Rope3_Seg07]
9 139.999771 0.000060 -0.000119 9.132154 -34.477142 34.274773 139.999771
10 139.999771 0.000060 -0.000119 8.781646 -30.533596 31.587412 139.999771
[Rope3_Seg08]
9 139.999985 -0.000060 0.000000 2.083336 -13.200005 21.527172 139.999985
10 139.999985 -0.000060 0.000000 2.422487 -11.601761 18.348684 139.999985
[Rope3_Seg09]
9 90.185997 -0.000179 -0.000060 73.686142 -1.358219 -0.848759 90.185997
10 90.185997 -0.000179 -0.000060 71.343140 -1.362003 -0.847801 90.185997
[R_rear_hand01]
9 103.366196 -6.073594 -10.757982 -156.303818 7.047812 -5.016648 104.101845
10 103.366196 -6.073594 -10.757982 -157.171555 9.603103 -11.017471 104.101845
[R_rear_hand02]
9 100.509819 12.039542 -7.992327 -38.618435 3.465866 7.345694 101.543350
10 100.509819 12.039542 -7.992327 -38.131191 7.480882 12.434045 101.543350
[R_rear_hand03]
9 101.539970 5.215704 5.435467 84.293983 -4.764457 4.337548 101.819031
10 101.539970 5.215704 5.435467 84.201607 -11.195496 4.994810 101.819031
[Rope4_Seg01]
9 -0.000017 -0.000057 -0.000153 45.817371 -39.097294 -95.161026 0.000164
10 -0.000016 -0.000055 -0.000153 46.308407 -43.667408 -95.273331 0.000163
[Rope4_Seg02]
9 139.999985 0.000060 0.000119 -0.159198 0.651569 -2.190356 139.999985
10 139.999985 0.000060 0.000119 -0.158565 0.112698 -1.971927 139.999985
[Rope4_Seg03]
9 139.999924 0.000000 -0.000238 -0.364396 1.167118 -3.870531 139.999924
10 139.999924 0.000000 -0.000238 -0.370578 0.203320 -3.431841 139.999924
[Rope4_Seg04]
9 139.999985 0.000000 0.000119 -1.435506 3.073515 -10.039255 139.999985
10 139.999985 0.000000 0.000119 -1.379736 0.562679 -8.589685 139.999985
[Rope4_Seg05]
9 139.999802 -0.000060 -0.000119 -28.273481 25.003338 -76.452110 139.999802
10 139.999802 -0.000060 -0.000119 -33.476448 13.251158 -78.565239 139.999802
[Rope4_Seg06]
9 139.999924 0.000000 0.000060 -10.311715 -3.548833 -49.235291 139.999924
10 139.999924 0.000000 0.000060 -25.951769 2.785321 -57.435341 139.999924
[Rope4_Seg07]
9 139.999802 0.000000 0.000000 -22.454685 -11.978923 -38.659138 139.999802
10 139.999802 0.000000 0.000000 -21.351631 -0.259163 -33.628586 139.999802
[Rope4_Seg08]
9 139.999924 0.000000 0.000119 -14.684447 3.903877 -10.783548 139.999924
10 139.999924 0.000000 0.000119 -8.527235 5.000390 -7.569085 139.999924
[Rope4_Seg09]
9 90.185791 0.000060 0.000060 -149.280670 2.227038 0.849503 90.185791
10 90.185791 0.000060 0.000060 -151.536880 2.226376 0.852221 90.185791
[L_rear_hand01]
9 101.696655 -8.392275 -7.654577 -38.519966 -4.554153 171.285233 102.329041
10 101.696655 -8.392275 -7.654577 -35.896191 -15.688193 156.491638 102.329041
[L_rear_hand02]
9 102.726799 -1.568258 5.773216 84.274826 6.499032 175.483887 102.900848
10 102.726799 -1.568258 5.773216 83.734360 24.715420 173.509384 102.900848
[L_rear_hand03]
9 104.552910 9.721220 -10.420293 -156.508423 -7.746345 -173.370834 105.519653
10 104.552910 9.721220 -10.420293 -159.895081 -14.596680 -156.045837 105.519653
